<svg role="img" aria-label="Mangular.io - Coming soon!" xmlns="http://www.w3.org/2000/svg" width="648.666" height="175.75" viewBox="-3.5 -3.5 648.66577 175.75" enable-background="new -3.5 -3.5 695 185"><title>Mangular.io</title><desc>Coming soon!</desc><filter color-interpolation-filters="sRGB"><feOffset dy=".5" dx=".3" in="SourceGraphic" result="offOut"/><feGaussianBlur in="offOut" result="blurOut" stdDeviation=".25"/><feColorMatrix values="1 0 0 0 0 0 1 0 0 0 0 0 1 0 0 0 0 0 .8 0" in="blurOut" result="blurTransOut"/><feBlend in2="blurTransOut" in="SourceGraphic"/></filter><path fill="#ccc" d="M297.758 53.34v70.801h-9.158l-43.322-57.536v57.536h-8.666v-70.801h9.159l43.326 57.035v-57.035z"/><path d="M368.062 121.368c-5.708 2.182-11.867 3.269-18.468 3.269-25.643 0-38.47-12.294-38.47-36.886 0-23.271 12.378-34.908 37.13-34.908 7.102 0 13.705.993 19.807 2.976v7.921c-6.103-2.311-12.378-3.468-18.817-3.468-19.306 0-28.957 9.163-28.957 27.479 0 19.638 9.5 29.462 28.518 29.462 3.033 0 6.399-.398 10.099-1.193v-24.06h9.158v29.408z" fill="#ccc"/><path d="M382.669 96.811v-43.468h9.153v43.467c0 13.599 6.769 20.406 20.304 20.406 13.531 0 20.3-6.808 20.3-20.406v-43.467h9.158v43.467c0 18.557-9.819 27.83-29.458 27.83-19.638.001-29.457-9.273-29.457-27.829z" fill="#ccc"/><path fill="#ccc" d="M504.122 124.141h-46.195v-70.801h9.154v63.377h37.041z"/><path fill="#ccc" d="M558.924 101.859h-23.412l2.523-7.418h17.824l-13.22-32.088-25.302 61.79h-9.504l35.2-80.142 35.201 80.142h-10.147z"/><path d="M587.89 124.141v-70.801h30.203c13.469 0 20.201 5.663 20.201 16.981 0 9.212-6.581 16.029-19.754 20.447l24.309 33.373h-12.081l-22.524-31.834v-5.986c13.53-2.151 20.295-7.349 20.295-15.598 0-6.533-3.762-9.806-11.283-9.806h-20.206v63.227h-9.159l-.001-.003z" fill="#ccc"/><path d="M300.075 51.027v70.801h-9.159l-43.325-57.536v57.536h-8.662v-70.801h9.158l43.322 57.036v-57.036z"/><path d="M370.379 119.055c-5.708 2.182-11.864 3.268-18.467 3.268-25.645 0-38.47-12.293-38.47-36.885 0-23.271 12.378-34.909 37.135-34.909 7.096 0 13.7.994 19.802 2.976v7.92c-6.103-2.311-12.378-3.468-18.813-3.468-19.307 0-28.96 9.163-28.96 27.479 0 19.639 9.504 29.463 28.517 29.463 3.034 0 6.404-.396 10.103-1.193v-24.061h9.154l-.001 29.41z"/><path d="M384.985 94.496v-43.473h9.153v43.472c0 13.598 6.769 20.401 20.305 20.401 13.53 0 20.299-6.804 20.299-20.401v-43.472h9.158v43.472c0 18.556-9.819 27.825-29.457 27.825-19.639 0-29.458-9.267-29.458-27.824z"/><path d="M506.435 121.824h-46.191v-70.801h9.154v63.377h37.037z"/><path d="M561.241 99.545h-23.417l2.529-7.424h17.819l-13.216-32.088-25.302 61.794h-9.505l35.202-80.146 35.201 80.146h-10.153z"/><path d="M590.207 121.828v-70.801h30.202c13.47 0 20.196 5.659 20.196 16.982 0 9.207-6.577 16.028-19.749 20.445l24.31 33.374h-12.086l-22.521-31.835v-5.992c13.531-2.151 20.299-7.344 20.299-15.598 0-6.533-3.766-9.801-11.292-9.801h-20.2v63.226h-9.159z"/><g><path fill="#b3b3b3" d="M79.189-3.5l-82.689 29.1 13.067 108.336 69.71 38.314 70.069-38.833 13.062-108.332z"/><path fill="#a6120d" d="M154.16 31.346l-75.164-25.632v157.382l62.991-34.862z"/><path fill="#dd1b16" d="M5.779 31.808l11.197 96.889 62.019 34.399v-157.385z"/><path style="line-height:125%;-inkscape-font-specification:Lato" d="M27.133 38.875l-4.813 85.938h12.813l2.875-66.719c.038-.901.024-1.868 0-2.938-.024-1.067-.065-2.146-.156-3.25l34.781 61.188 6.367 10.875 6.133-10.813 33.625-60.813c-.042 1.059-.066 2.101-.063 3.125.003 1.026.05 2.005.094 2.906l3.188 66.813h12.813l-5.281-86.313h-15.875l-31.469 55.188c-1.217 2.193-1.94 3.567-3.156 5.594-1.107-1.856-2.128-3.269-3.469-5.563l-32.375-55.219z" font-size="120.99" letter-spacing="0" word-spacing="0" font-family="Lato"/><path d="M31.883 36.031l-5 88.875 11.813.031 2.844-67.125c.035-.823.053-1.711.031-2.688-.022-.974-.073-1.961-.156-2.969l31.738 55.906 5.844 9.906v-22.219l-3.156-5.063-30.926-52.781c-.508-.858-1.051-1.374-1.625-1.563-.574-.188-1.418-.278-2.5-.281z" fill="#f2f2f2"/><path style="line-height:125%;-inkscape-font-specification:Lato" d="M115.946 36.313c-1.081-.004-1.896.066-2.469.25s-1.122.708-1.625 1.563l-29.949 52.531c-1.111 2.003-1.803 3.242-2.914 5.094v22.219l5.602-9.875 30.73-55.531c-.038.967-.066 1.909-.063 2.844.002.937.023 1.833.063 2.656l3.25 67.094 11.781.031-5.469-88.875h-8.938z" font-size="120.99" letter-spacing="0" word-spacing="0" fill="#b3b3b3" font-family="Lato"/></g><g><path d="M156.211 124.134l35.2-71.208 36.451 71.208h-10.147l-9.163-19.8h-35.256l2.877-6.591h29.314l-13.22-28.511-23.552 54.902z" fill="#ccc"/><path d="M158.573 122.076l35.202-71.212 35.201 71.212h-10.153l-9.158-19.798-35.084.344 1.203-8.253 31.978.138-1.166 1.175-13.216-28.511-25.302 54.906z"/><path d="M158.573 122.076l35.202-71.212 35.201 71.212h-10.153l-9.158-19.798-35.084.344 1.203-8.253 31.978.138-1.166 1.175-13.216-28.511-25.302 54.906z"/><path d="M160.238 122.062l32.702-64.462 2.105 9.556-25.302 54.906z"/></g></svg>
