<?xml version="1.0" encoding="UTF-8" standalone="no"?>
<svg
   xmlns:dc="http://purl.org/dc/elements/1.1/"
   xmlns:cc="http://creativecommons.org/ns#"
   xmlns:rdf="http://www.w3.org/1999/02/22-rdf-syntax-ns#"
   xmlns:svg="http://www.w3.org/2000/svg"
   xmlns="http://www.w3.org/2000/svg"
   xmlns:sodipodi="http://sodipodi.sourceforge.net/DTD/sodipodi-0.dtd"
   xmlns:inkscape="http://www.inkscape.org/namespaces/inkscape"
   version="1.1"
   id="Layer_1"
   width="648.66577"
   height="175.75"
   viewBox="-3.5 -3.5 648.66577 175.75"
   enable-background="new -3.5 -3.5 695 185"
   xml:space="preserve"
   inkscape:version="0.48.5 r10040"
   sodipodi:docname="mangular.svg"><sodipodi:namedview
   pagecolor="#ffffff"
   bordercolor="#666666"
   borderopacity="1"
   objecttolerance="10"
   gridtolerance="10"
   guidetolerance="10"
   inkscape:pageopacity="0"
   inkscape:pageshadow="2"
   inkscape:window-width="1280"
   inkscape:window-height="961"
   id="namedview3111"
   showgrid="false"
   inkscape:zoom="2"
   inkscape:cx="209.02415"
   inkscape:cy="99.284732"
   inkscape:window-x="-8"
   inkscape:window-y="-8"
   inkscape:window-maximized="1"
   inkscape:current-layer="Layer_1"
   inkscape:snap-global="false"
   showguides="false"
   fit-margin-top="0"
   fit-margin-left="0"
   fit-margin-right="0"
   fit-margin-bottom="0" /><metadata
   id="metadata3115"><rdf:RDF><cc:Work
       rdf:about=""><dc:format>image/svg+xml</dc:format><dc:type
         rdf:resource="http://purl.org/dc/dcmitype/StillImage" /><dc:title></dc:title></cc:Work></rdf:RDF></metadata><defs
   id="defs3113">
	
	
	
	
	
	
	
	
	
	
	
	
	
	
	
	
	

	
	
	
	
	
</defs>
<filter
   id="googleDropShadow"
   color-interpolation-filters="sRGB">
	<feOffset
   id="feOffset3053"
   dy="0.5"
   dx="0.3"
   in="SourceGraphic"
   result="offOut" />
	<feGaussianBlur
   id="feGaussianBlur3055"
   in="offOut"
   result="blurOut"
   stdDeviation="0.25" />
	<feColorMatrix
   id="feColorMatrix3057"
   values="1 0 0 0 0 0 1 0 0 0 0 0 1 0 0 0 0 0 .8 0"
   in="blurOut"
   result="blurTransOut"
   type="matrix" />
	<feBlend
   id="feBlend3059"
   in2="blurTransOut"
   mode="normal"
   in="SourceGraphic" />
</filter>
<polygon
   style="fill:#cccccc"
   points="238.394,57.715 238.394,128.516 229.236,128.516 185.914,70.98 185.914,128.516 177.248,128.516 177.248,57.715 186.407,57.715 229.733,114.75 229.733,57.715 "
   id="polygon3063"
   transform="translate(59.363783,-4.375)" /><path
   style="fill:#cccccc"
   inkscape:connector-curvature="0"
   d="m 368.06178,121.368 c -5.708,2.182 -11.867,3.269 -18.468,3.269 -25.643,0 -38.47,-12.294 -38.47,-36.886 0,-23.271 12.378,-34.908 37.13,-34.908 7.102,0 13.705,0.993 19.807,2.976 v 7.921 c -6.103,-2.311 -12.378,-3.468 -18.817,-3.468 -19.306,0 -28.957,9.163 -28.957,27.479 0,19.638 9.5,29.462 28.518,29.462 3.033,0 6.399,-0.398 10.099,-1.193 V 91.96 h 9.158 l 0,29.408 0,0 z"
   id="path3065" /><path
   style="fill:#cccccc"
   inkscape:connector-curvature="0"
   d="M 382.66878,96.811 V 53.343 h 9.153 V 96.81 c 0,13.599 6.769,20.406 20.304,20.406 13.531,0 20.3,-6.808 20.3,-20.406 V 53.343 h 9.158 V 96.81 c 0,18.557 -9.819,27.83 -29.458,27.83 -19.638,0.001 -29.457,-9.273 -29.457,-27.829 z"
   id="path3067" /><polygon
   style="fill:#cccccc"
   points="444.758,128.516 398.563,128.516 398.563,57.715 407.717,57.715 407.717,121.092 444.758,121.092 "
   id="polygon3069"
   transform="translate(59.363783,-4.375)" /><polygon
   style="fill:#cccccc"
   points="499.56,106.234 476.148,106.234 478.671,98.816 496.495,98.816 483.275,66.728 457.973,128.518 448.469,128.518 483.669,48.376 518.87,128.518 508.723,128.518 "
   id="polygon3071"
   transform="translate(59.363783,-4.375)" /><path
   style="fill:#cccccc"
   inkscape:connector-curvature="0"
   d="M 587.88978,124.141 V 53.34 h 30.203 c 13.469,0 20.201,5.663 20.201,16.981 0,9.212 -6.581,16.029 -19.754,20.447 l 24.309,33.373 h -12.081 l -22.524,-31.834 v -5.986 c 13.53,-2.151 20.295,-7.349 20.295,-15.598 0,-6.533 -3.762,-9.806 -11.283,-9.806 h -20.206 v 63.227 h -9.159 l -10e-4,-0.003 0,0 z"
   id="path3073" /><polygon
   points="240.711,55.402 240.711,126.203 231.552,126.203 188.227,68.667 188.227,126.203 179.565,126.203 179.565,55.402 188.723,55.402 232.045,112.438 232.045,55.402 "
   id="polygon3079"
   transform="translate(59.363783,-4.375)" /><path
   inkscape:connector-curvature="0"
   d="m 370.37878,119.055 c -5.708,2.182 -11.864,3.268 -18.467,3.268 -25.645,0 -38.47,-12.293 -38.47,-36.885 0,-23.271 12.378,-34.909 37.135,-34.909 7.096,0 13.7,0.994 19.802,2.976 v 7.92 c -6.103,-2.311 -12.378,-3.468 -18.813,-3.468 -19.307,0 -28.96,9.163 -28.96,27.479 0,19.639 9.504,29.463 28.517,29.463 3.034,0 6.404,-0.396 10.103,-1.193 V 89.645 h 9.154 l -10e-4,29.41 0,0 z"
   id="path3081" /><path
   inkscape:connector-curvature="0"
   d="M 384.98478,94.496 V 51.023 h 9.153 v 43.472 c 0,13.598 6.769,20.401 20.305,20.401 13.53,0 20.299,-6.804 20.299,-20.401 V 51.023 h 9.158 v 43.472 c 0,18.556 -9.819,27.825 -29.457,27.825 -19.639,0 -29.458,-9.267 -29.458,-27.824 z"
   id="path3083" /><polygon
   points="447.071,126.199 400.88,126.199 400.88,55.398 410.034,55.398 410.034,118.775 447.071,118.775 "
   id="polygon3085"
   transform="translate(59.363783,-4.375)" /><polygon
   points="501.877,103.92 478.46,103.92 480.989,96.496 498.808,96.496 485.592,64.408 460.29,126.202 450.785,126.202 485.987,46.056 521.188,126.202 511.035,126.202 "
   id="polygon3087"
   transform="translate(59.363783,-4.375)" /><path
   inkscape:connector-curvature="0"
   d="M 590.20678,121.828 V 51.027 h 30.202 c 13.47,0 20.196,5.659 20.196,16.982 0,9.207 -6.577,16.028 -19.749,20.445 l 24.31,33.374 h -12.086 l -22.521,-31.835 v -5.992 c 13.531,-2.151 20.299,-7.344 20.299,-15.598 0,-6.533 -3.766,-9.801 -11.292,-9.801 h -20.2 v 63.226 c 0,0 -9.159,0 -9.159,0 z"
   id="path3089" />
<g
   id="g4086"
   transform="translate(-4.054,-4.375)"><polygon
     id="polygon3099"
     points="83.243,0.875 0.554,29.975 13.621,138.311 83.331,176.625 153.4,137.792 166.462,29.46 "
     style="fill:#b3b3b3" /><polygon
     id="polygon3101"
     points="158.214,35.721 83.05,10.089 83.05,167.471 146.041,132.609 "
     style="fill:#a6120d" /><polygon
     id="polygon3103"
     points="9.833,36.183 21.03,133.072 83.049,167.471 83.049,10.086 "
     style="fill:#dd1b16" /><path
     style="font-size:120.99041748px;font-style:normal;font-variant:normal;font-weight:normal;font-stretch:normal;line-height:125%;letter-spacing:0px;word-spacing:0px;fill:#000000;fill-opacity:1;stroke:none;font-family:Lato;-inkscape-font-specification:Lato"
     d="m 31.1875,43.25 -4.8125,85.9375 12.8125,0 2.875,-66.71875 c 0.03832,-0.90124 0.02414,-1.867728 0,-2.9375 -0.02412,-1.067057 -0.06462,-2.146362 -0.15625,-3.25 l 34.78125,61.1875 6.367187,10.875 6.132813,-10.8125 33.625,-60.8125 c -0.0422,1.05929 -0.0655,2.10104 -0.0625,3.125 0.003,1.026472 0.0502,2.004992 0.0937,2.90625 l 3.1875,66.8125 12.8125,0 -5.28125,-86.3125 -15.875,0 -31.46875,55.1875 c -1.216794,2.1933 -1.939793,3.56651 -3.15625,5.59375 -1.1072,-1.85631 -2.127999,-3.2695 -3.46875,-5.5625 L 47.21875,43.25 z"
     id="path3208"
     inkscape:connector-curvature="0"
     sodipodi:nodetypes="ccccccccccccccccccccc" /><path
     style="fill:#f2f2f2;fill-opacity:1"
     d="m 35.9375,40.40625 -5,88.875 11.8125,0.0312 2.84375,-67.125 c 0.035,-0.823044 0.0533,-1.710547 0.03125,-2.6875 -0.02203,-0.974474 -0.07257,-1.960869 -0.15625,-2.96875 l 31.738281,55.90625 5.84375,9.90625 0,-22.21875 -3.15625,-5.0625 -30.925781,-52.7812 c -0.507708,-0.857735 -1.051031,-1.374291 -1.625,-1.5625 -0.573756,-0.187962 -1.418463,-0.27755 -2.5,-0.28125 z"
     id="rect4019"
     inkscape:connector-curvature="0"
     sodipodi:nodetypes="cccccccccccccc" /><path
     style="font-size:120.99041748px;font-style:normal;font-variant:normal;font-weight:normal;font-stretch:normal;line-height:125%;letter-spacing:0px;word-spacing:0px;fill:#b3b3b3;fill-opacity:1;stroke:none;font-family:Lato;-inkscape-font-specification:Lato"
     d="m 120,40.6875 c -1.08106,-0.0035 -1.89647,0.06591 -2.46875,0.25 -0.57273,0.184339 -1.12249,0.708345 -1.625,1.5625 L 85.957031,95.03125 c -1.111219,2.003 -1.803152,3.2424 -2.914063,5.09375 l 0,22.21875 5.601563,-9.875 L 119.375,56.9375 c -0.0385,0.967381 -0.0655,1.908634 -0.0625,2.84375 0.002,0.93741 0.0227,1.83319 0.0625,2.65625 l 3.25,67.09375 11.78125,0.0312 -5.46875,-88.875 -8.9375,0 z"
     id="path4034"
     inkscape:connector-curvature="0"
     sodipodi:nodetypes="ccccccccccccccc" /></g>


<g
   style="font-size:15.77988434px;font-style:normal;font-variant:normal;font-weight:normal;font-stretch:normal;line-height:125%;letter-spacing:0px;word-spacing:0px;fill:#000000;fill-opacity:1;stroke:none;font-family:Governor;-inkscape-font-specification:Governor"
   id="text3047"
   transform="translate(226.311,-136.8014)" />















































<g
   id="g3953"
   transform="translate(-12.054,-144.375)"><path
     sodipodi:nodetypes="ccccccccccc"
     inkscape:connector-curvature="0"
     id="polygon3071-1"
     d="m 168.26524,268.50902 35.2,-71.20823 36.451,71.20823 -10.147,0 -9.163,-19.79991 -35.25604,0 2.87655,-6.59108 29.31449,0 -13.22,-28.51102 -23.552,54.90201 z"
     style="fill:#cccccc" /><path
     sodipodi:nodetypes="cccccccccccc"
     inkscape:connector-curvature="0"
     id="polygon3087-7"
     d="m 170.62675,266.45119 35.202,-71.21178 35.201,71.21178 -10.153,0 -9.158,-19.79813 -35.08426,0.34376 1.20317,-8.25343 31.97835,0.13832 -1.16626,1.17494 -13.216,-28.51102 -25.302,54.90556 z" /><path
     d="m 170.62675,266.45119 35.202,-71.21178 35.201,71.21178 -10.153,0 -9.158,-19.79813 -35.08426,0.34376 1.20317,-8.25343 31.97835,0.13832 -1.16626,1.17494 -13.216,-28.51102 -25.302,54.90556 z"
     id="path3828"
     inkscape:connector-curvature="0"
     sodipodi:nodetypes="cccccccccccc" /><path
     d="m 172.29222,266.4367 32.702,-64.46179 2.105,9.55623 -25.302,54.90556 z"
     id="path3828-1"
     inkscape:connector-curvature="0"
     sodipodi:nodetypes="ccccc" /></g>
</svg>